<mxfile host="app.diagrams.net" agent="Mozilla/5.0 (Windows NT 10.0; Win64; x64) AppleWebKit/537.36 (KHTML, like Gecko) Chrome/139.0.0.0 Safari/537.36" version="28.1.2">
  <diagram id="-adX6mvvkEu7IYGf4EIG" name="Page-1">
    <mxGraphModel dx="1722" dy="919" grid="1" gridSize="5" guides="1" tooltips="1" connect="1" arrows="1" fold="1" page="1" pageScale="1" pageWidth="850" pageHeight="1100" math="0" shadow="0">
      <root>
        <mxCell id="0" />
        <mxCell id="1" parent="0" />
        <mxCell id="haDYLrlUG1KrTOK4M4nS-3" value="&lt;font style=&quot;font-size: 60px;&quot;&gt;STM32F767&lt;/font&gt;" style="rounded=0;whiteSpace=wrap;html=1;" vertex="1" parent="1">
          <mxGeometry x="160" y="270" width="500" height="240" as="geometry" />
        </mxCell>
        <mxCell id="haDYLrlUG1KrTOK4M4nS-32" style="edgeStyle=orthogonalEdgeStyle;shape=connector;rounded=0;orthogonalLoop=1;jettySize=auto;html=1;exitX=0;exitY=0.5;exitDx=0;exitDy=0;entryX=0;entryY=0.8;entryDx=0;entryDy=0;strokeColor=#FF0707;align=center;verticalAlign=middle;fontFamily=Helvetica;fontSize=11;fontColor=default;labelBackgroundColor=default;endArrow=none;endFill=0;" edge="1" parent="1" source="haDYLrlUG1KrTOK4M4nS-4" target="haDYLrlUG1KrTOK4M4nS-30">
          <mxGeometry relative="1" as="geometry">
            <Array as="points">
              <mxPoint x="110" y="340" />
              <mxPoint x="110" y="820" />
              <mxPoint x="703" y="820" />
            </Array>
          </mxGeometry>
        </mxCell>
        <mxCell id="haDYLrlUG1KrTOK4M4nS-4" value="3.3V" style="triangle;whiteSpace=wrap;html=1;flipH=1;" vertex="1" parent="1">
          <mxGeometry x="160" y="300" width="60" height="80" as="geometry" />
        </mxCell>
        <mxCell id="haDYLrlUG1KrTOK4M4nS-5" value="GND" style="triangle;whiteSpace=wrap;html=1;flipH=1;" vertex="1" parent="1">
          <mxGeometry x="160" y="390" width="60" height="80" as="geometry" />
        </mxCell>
        <mxCell id="haDYLrlUG1KrTOK4M4nS-6" value="GPIO_Output" style="rounded=0;whiteSpace=wrap;html=1;" vertex="1" parent="1">
          <mxGeometry x="260" y="470" width="90" height="40" as="geometry" />
        </mxCell>
        <mxCell id="haDYLrlUG1KrTOK4M4nS-8" value="GPIO_Output" style="rounded=0;whiteSpace=wrap;html=1;" vertex="1" parent="1">
          <mxGeometry x="360" y="470" width="90" height="40" as="geometry" />
        </mxCell>
        <mxCell id="haDYLrlUG1KrTOK4M4nS-9" value="GPIO_Output" style="rounded=0;whiteSpace=wrap;html=1;" vertex="1" parent="1">
          <mxGeometry x="460" y="470" width="90" height="40" as="geometry" />
        </mxCell>
        <mxCell id="haDYLrlUG1KrTOK4M4nS-10" value="GPIO_Input" style="rounded=0;whiteSpace=wrap;html=1;rotation=-90;" vertex="1" parent="1">
          <mxGeometry x="594" y="420" width="90" height="40" as="geometry" />
        </mxCell>
        <mxCell id="haDYLrlUG1KrTOK4M4nS-11" value="LED_RED" style="verticalLabelPosition=bottom;shadow=0;dashed=0;align=center;html=1;verticalAlign=top;shape=mxgraph.electrical.opto_electronics.led_2;pointerEvents=1;rotation=90;fillColor=#f8cecc;strokeColor=#b85450;" vertex="1" parent="1">
          <mxGeometry x="281.63" y="550" width="70" height="50" as="geometry" />
        </mxCell>
        <mxCell id="haDYLrlUG1KrTOK4M4nS-21" style="edgeStyle=orthogonalEdgeStyle;shape=connector;rounded=0;orthogonalLoop=1;jettySize=auto;html=1;exitX=0;exitY=0.57;exitDx=0;exitDy=0;exitPerimeter=0;entryX=0.5;entryY=1;entryDx=0;entryDy=0;strokeColor=default;align=center;verticalAlign=middle;fontFamily=Helvetica;fontSize=11;fontColor=default;labelBackgroundColor=default;endArrow=none;endFill=0;" edge="1" parent="1" source="haDYLrlUG1KrTOK4M4nS-12" target="haDYLrlUG1KrTOK4M4nS-8">
          <mxGeometry relative="1" as="geometry" />
        </mxCell>
        <mxCell id="haDYLrlUG1KrTOK4M4nS-12" value="LED_YELLOW" style="verticalLabelPosition=bottom;shadow=0;dashed=0;align=center;html=1;verticalAlign=top;shape=mxgraph.electrical.opto_electronics.led_2;pointerEvents=1;rotation=90;fillColor=#fff2cc;strokeColor=#d6b656;" vertex="1" parent="1">
          <mxGeometry x="374" y="550" width="70" height="50" as="geometry" />
        </mxCell>
        <mxCell id="haDYLrlUG1KrTOK4M4nS-20" style="edgeStyle=orthogonalEdgeStyle;shape=connector;rounded=0;orthogonalLoop=1;jettySize=auto;html=1;exitX=0;exitY=0.57;exitDx=0;exitDy=0;exitPerimeter=0;entryX=0.5;entryY=1;entryDx=0;entryDy=0;strokeColor=default;align=center;verticalAlign=middle;fontFamily=Helvetica;fontSize=11;fontColor=default;labelBackgroundColor=default;endArrow=none;endFill=0;" edge="1" parent="1" source="haDYLrlUG1KrTOK4M4nS-13" target="haDYLrlUG1KrTOK4M4nS-9">
          <mxGeometry relative="1" as="geometry" />
        </mxCell>
        <mxCell id="haDYLrlUG1KrTOK4M4nS-13" value="LED_GREEN" style="verticalLabelPosition=bottom;shadow=0;dashed=0;align=center;html=1;verticalAlign=top;shape=mxgraph.electrical.opto_electronics.led_2;pointerEvents=1;rotation=90;fillColor=#d5e8d4;strokeColor=#82b366;" vertex="1" parent="1">
          <mxGeometry x="473" y="550" width="70" height="50" as="geometry" />
        </mxCell>
        <mxCell id="haDYLrlUG1KrTOK4M4nS-14" value="100" style="pointerEvents=1;verticalLabelPosition=bottom;shadow=0;dashed=0;align=center;html=1;verticalAlign=top;shape=mxgraph.electrical.resistors.resistor_2;rotation=90;" vertex="1" parent="1">
          <mxGeometry x="273.01" y="680.99" width="81.25" height="12.5" as="geometry" />
        </mxCell>
        <mxCell id="haDYLrlUG1KrTOK4M4nS-25" style="edgeStyle=orthogonalEdgeStyle;shape=connector;rounded=0;orthogonalLoop=1;jettySize=auto;html=1;exitX=1;exitY=0.5;exitDx=0;exitDy=0;exitPerimeter=0;strokeColor=default;align=center;verticalAlign=middle;fontFamily=Helvetica;fontSize=11;fontColor=default;labelBackgroundColor=default;endArrow=none;endFill=0;entryX=0.525;entryY=0.175;entryDx=0;entryDy=0;entryPerimeter=0;" edge="1" parent="1" source="haDYLrlUG1KrTOK4M4nS-15" target="haDYLrlUG1KrTOK4M4nS-23">
          <mxGeometry relative="1" as="geometry">
            <mxPoint x="410" y="755" as="targetPoint" />
          </mxGeometry>
        </mxCell>
        <mxCell id="haDYLrlUG1KrTOK4M4nS-15" value="100" style="pointerEvents=1;verticalLabelPosition=bottom;shadow=0;dashed=0;align=center;html=1;verticalAlign=top;shape=mxgraph.electrical.resistors.resistor_2;rotation=90;" vertex="1" parent="1">
          <mxGeometry x="365.755" y="680.995" width="81.25" height="12.5" as="geometry" />
        </mxCell>
        <mxCell id="haDYLrlUG1KrTOK4M4nS-26" style="edgeStyle=orthogonalEdgeStyle;shape=connector;rounded=0;orthogonalLoop=1;jettySize=auto;html=1;exitX=1;exitY=0.5;exitDx=0;exitDy=0;exitPerimeter=0;strokeColor=default;align=center;verticalAlign=middle;fontFamily=Helvetica;fontSize=11;fontColor=default;labelBackgroundColor=default;endArrow=none;endFill=0;entryX=0.483;entryY=0.267;entryDx=0;entryDy=0;entryPerimeter=0;" edge="1" parent="1" source="haDYLrlUG1KrTOK4M4nS-16" target="haDYLrlUG1KrTOK4M4nS-23">
          <mxGeometry relative="1" as="geometry">
            <mxPoint x="410" y="750" as="targetPoint" />
            <Array as="points">
              <mxPoint x="505" y="740" />
              <mxPoint x="408" y="740" />
            </Array>
          </mxGeometry>
        </mxCell>
        <mxCell id="haDYLrlUG1KrTOK4M4nS-16" value="100" style="pointerEvents=1;verticalLabelPosition=bottom;shadow=0;dashed=0;align=center;html=1;verticalAlign=top;shape=mxgraph.electrical.resistors.resistor_2;rotation=90;" vertex="1" parent="1">
          <mxGeometry x="464.375" y="680.985" width="81.25" height="12.5" as="geometry" />
        </mxCell>
        <mxCell id="haDYLrlUG1KrTOK4M4nS-17" style="edgeStyle=orthogonalEdgeStyle;rounded=0;orthogonalLoop=1;jettySize=auto;html=1;exitX=1;exitY=0.57;exitDx=0;exitDy=0;exitPerimeter=0;entryX=0;entryY=0.5;entryDx=0;entryDy=0;entryPerimeter=0;endArrow=none;endFill=0;" edge="1" parent="1" source="haDYLrlUG1KrTOK4M4nS-11" target="haDYLrlUG1KrTOK4M4nS-14">
          <mxGeometry relative="1" as="geometry" />
        </mxCell>
        <mxCell id="haDYLrlUG1KrTOK4M4nS-18" style="edgeStyle=orthogonalEdgeStyle;shape=connector;rounded=0;orthogonalLoop=1;jettySize=auto;html=1;exitX=1;exitY=0.57;exitDx=0;exitDy=0;exitPerimeter=0;entryX=0;entryY=0.5;entryDx=0;entryDy=0;entryPerimeter=0;strokeColor=default;align=center;verticalAlign=middle;fontFamily=Helvetica;fontSize=11;fontColor=default;labelBackgroundColor=default;endArrow=none;endFill=0;" edge="1" parent="1" source="haDYLrlUG1KrTOK4M4nS-12" target="haDYLrlUG1KrTOK4M4nS-15">
          <mxGeometry relative="1" as="geometry" />
        </mxCell>
        <mxCell id="haDYLrlUG1KrTOK4M4nS-19" style="edgeStyle=orthogonalEdgeStyle;shape=connector;rounded=0;orthogonalLoop=1;jettySize=auto;html=1;exitX=1;exitY=0.57;exitDx=0;exitDy=0;exitPerimeter=0;entryX=0;entryY=0.5;entryDx=0;entryDy=0;entryPerimeter=0;strokeColor=default;align=center;verticalAlign=middle;fontFamily=Helvetica;fontSize=11;fontColor=default;labelBackgroundColor=default;endArrow=none;endFill=0;" edge="1" parent="1" source="haDYLrlUG1KrTOK4M4nS-13" target="haDYLrlUG1KrTOK4M4nS-16">
          <mxGeometry relative="1" as="geometry" />
        </mxCell>
        <mxCell id="haDYLrlUG1KrTOK4M4nS-22" style="edgeStyle=orthogonalEdgeStyle;shape=connector;rounded=0;orthogonalLoop=1;jettySize=auto;html=1;exitX=0;exitY=0.57;exitDx=0;exitDy=0;exitPerimeter=0;entryX=0.598;entryY=1.025;entryDx=0;entryDy=0;entryPerimeter=0;strokeColor=default;align=center;verticalAlign=middle;fontFamily=Helvetica;fontSize=11;fontColor=default;labelBackgroundColor=default;endArrow=none;endFill=0;" edge="1" parent="1" source="haDYLrlUG1KrTOK4M4nS-11" target="haDYLrlUG1KrTOK4M4nS-6">
          <mxGeometry relative="1" as="geometry" />
        </mxCell>
        <mxCell id="haDYLrlUG1KrTOK4M4nS-23" value="" style="pointerEvents=1;verticalLabelPosition=bottom;shadow=0;dashed=0;align=center;html=1;verticalAlign=top;shape=mxgraph.electrical.signal_sources.protective_earth;" vertex="1" parent="1">
          <mxGeometry x="389" y="760" width="40" height="40" as="geometry" />
        </mxCell>
        <mxCell id="haDYLrlUG1KrTOK4M4nS-24" style="edgeStyle=orthogonalEdgeStyle;shape=connector;rounded=0;orthogonalLoop=1;jettySize=auto;html=1;exitX=1;exitY=0.5;exitDx=0;exitDy=0;exitPerimeter=0;entryX=0.508;entryY=0.108;entryDx=0;entryDy=0;entryPerimeter=0;strokeColor=default;align=center;verticalAlign=middle;fontFamily=Helvetica;fontSize=11;fontColor=default;labelBackgroundColor=default;endArrow=none;endFill=0;" edge="1" parent="1" source="haDYLrlUG1KrTOK4M4nS-14" target="haDYLrlUG1KrTOK4M4nS-23">
          <mxGeometry relative="1" as="geometry">
            <Array as="points">
              <mxPoint x="314" y="740" />
              <mxPoint x="409" y="740" />
            </Array>
          </mxGeometry>
        </mxCell>
        <mxCell id="haDYLrlUG1KrTOK4M4nS-33" style="edgeStyle=orthogonalEdgeStyle;shape=connector;rounded=0;orthogonalLoop=1;jettySize=auto;html=1;exitX=1;exitY=0.8;exitDx=0;exitDy=0;entryX=1;entryY=0.75;entryDx=0;entryDy=0;strokeColor=default;align=center;verticalAlign=middle;fontFamily=Helvetica;fontSize=11;fontColor=default;labelBackgroundColor=default;endArrow=none;endFill=0;" edge="1" parent="1" source="haDYLrlUG1KrTOK4M4nS-30" target="haDYLrlUG1KrTOK4M4nS-3">
          <mxGeometry relative="1" as="geometry" />
        </mxCell>
        <mxCell id="haDYLrlUG1KrTOK4M4nS-30" value="" style="html=1;shape=mxgraph.electrical.electro-mechanical.pushbutton;aspect=fixed;elSwitchState=off;fontFamily=Helvetica;fontSize=11;fontColor=default;labelBackgroundColor=default;rotation=-90;flipH=0;" vertex="1" parent="1">
          <mxGeometry x="660" y="580" width="75" height="20" as="geometry" />
        </mxCell>
        <mxCell id="haDYLrlUG1KrTOK4M4nS-31" style="edgeStyle=orthogonalEdgeStyle;shape=connector;rounded=0;orthogonalLoop=1;jettySize=auto;html=1;exitX=0;exitY=0.5;exitDx=0;exitDy=0;entryX=0.495;entryY=0.199;entryDx=0;entryDy=0;entryPerimeter=0;strokeColor=default;align=center;verticalAlign=middle;fontFamily=Helvetica;fontSize=11;fontColor=default;labelBackgroundColor=default;endArrow=none;endFill=0;" edge="1" parent="1" source="haDYLrlUG1KrTOK4M4nS-5" target="haDYLrlUG1KrTOK4M4nS-23">
          <mxGeometry relative="1" as="geometry">
            <Array as="points">
              <mxPoint x="140" y="430" />
              <mxPoint x="140" y="750" />
              <mxPoint x="409" y="750" />
            </Array>
          </mxGeometry>
        </mxCell>
        <mxCell id="haDYLrlUG1KrTOK4M4nS-36" style="edgeStyle=orthogonalEdgeStyle;shape=connector;rounded=0;orthogonalLoop=1;jettySize=auto;html=1;exitX=0;exitY=0.5;exitDx=0;exitDy=0;exitPerimeter=0;strokeColor=default;align=center;verticalAlign=middle;fontFamily=Helvetica;fontSize=11;fontColor=default;labelBackgroundColor=default;endArrow=none;endFill=0;" edge="1" parent="1" source="haDYLrlUG1KrTOK4M4nS-34">
          <mxGeometry relative="1" as="geometry">
            <mxPoint x="705" y="552.7931034482758" as="targetPoint" />
            <Array as="points">
              <mxPoint x="635" y="533" />
              <mxPoint x="695" y="533" />
              <mxPoint x="695" y="553" />
            </Array>
          </mxGeometry>
        </mxCell>
        <mxCell id="haDYLrlUG1KrTOK4M4nS-34" value="10K" style="pointerEvents=1;verticalLabelPosition=bottom;shadow=0;dashed=0;align=center;html=1;verticalAlign=top;shape=mxgraph.electrical.resistors.resistor_2;rotation=90;" vertex="1" parent="1">
          <mxGeometry x="593.995" y="587.505" width="81.25" height="12.5" as="geometry" />
        </mxCell>
        <mxCell id="haDYLrlUG1KrTOK4M4nS-37" style="edgeStyle=orthogonalEdgeStyle;shape=connector;rounded=0;orthogonalLoop=1;jettySize=auto;html=1;exitX=1;exitY=0.5;exitDx=0;exitDy=0;exitPerimeter=0;entryX=0.529;entryY=0.268;entryDx=0;entryDy=0;entryPerimeter=0;strokeColor=default;align=center;verticalAlign=middle;fontFamily=Helvetica;fontSize=11;fontColor=default;labelBackgroundColor=default;endArrow=none;endFill=0;" edge="1" parent="1" source="haDYLrlUG1KrTOK4M4nS-34" target="haDYLrlUG1KrTOK4M4nS-23">
          <mxGeometry relative="1" as="geometry">
            <Array as="points">
              <mxPoint x="635" y="750" />
              <mxPoint x="410" y="750" />
            </Array>
          </mxGeometry>
        </mxCell>
      </root>
    </mxGraphModel>
  </diagram>
</mxfile>
